G04 Layer: TopPasteMaskLayer*
G04 EasyEDA v6.4.25, 2021-11-01T16:40:30+01:00*
G04 d0984406bf964252bec45fc5339864a5,23de75a5ce864506aa6f80b6cd8e489b,10*
G04 Gerber Generator version 0.2*
G04 Scale: 100 percent, Rotated: No, Reflected: No *
G04 Dimensions in millimeters *
G04 leading zeros omitted , absolute positions ,4 integer and 5 decimal *
%FSLAX45Y45*%
%MOMM*%

%ADD12C,0.6000*%
%ADD15R,0.5320X1.0375*%
%ADD18R,1.1000X1.0000*%

%LPD*%
G36*
X2563520Y-2752293D02*
G01*
X2558491Y-2757322D01*
X2558491Y-2837281D01*
X2563520Y-2842310D01*
X2643479Y-2842310D01*
X2648508Y-2837281D01*
X2648508Y-2757322D01*
X2643479Y-2752293D01*
X2620721Y-2752293D01*
X2620721Y-2789326D01*
X2587701Y-2789326D01*
X2587701Y-2752293D01*
G37*
G36*
X2563520Y-2593289D02*
G01*
X2558491Y-2598318D01*
X2558491Y-2677312D01*
X2563520Y-2682290D01*
X2587701Y-2682290D01*
X2587701Y-2644292D01*
X2620721Y-2644292D01*
X2620721Y-2682290D01*
X2643479Y-2682290D01*
X2648508Y-2677312D01*
X2648508Y-2598318D01*
X2643479Y-2593289D01*
G37*
G36*
X2233320Y-2752293D02*
G01*
X2228291Y-2757322D01*
X2228291Y-2837281D01*
X2233320Y-2842310D01*
X2313279Y-2842310D01*
X2318308Y-2837281D01*
X2318308Y-2757322D01*
X2313279Y-2752293D01*
X2290521Y-2752293D01*
X2290521Y-2789326D01*
X2257501Y-2789326D01*
X2257501Y-2752293D01*
G37*
G36*
X2233320Y-2593289D02*
G01*
X2228291Y-2598318D01*
X2228291Y-2677312D01*
X2233320Y-2682290D01*
X2257501Y-2682290D01*
X2257501Y-2644292D01*
X2290521Y-2644292D01*
X2290521Y-2682290D01*
X2313279Y-2682290D01*
X2318308Y-2677312D01*
X2318308Y-2598318D01*
X2313279Y-2593289D01*
G37*
G36*
X747420Y-2764993D02*
G01*
X742391Y-2770022D01*
X742391Y-2849981D01*
X747420Y-2855010D01*
X827379Y-2855010D01*
X832408Y-2849981D01*
X832408Y-2770022D01*
X827379Y-2764993D01*
X804621Y-2764993D01*
X804621Y-2802026D01*
X771601Y-2802026D01*
X771601Y-2764993D01*
G37*
G36*
X747420Y-2605989D02*
G01*
X742391Y-2611018D01*
X742391Y-2690012D01*
X747420Y-2694990D01*
X771601Y-2694990D01*
X771601Y-2656992D01*
X804621Y-2656992D01*
X804621Y-2694990D01*
X827379Y-2694990D01*
X832408Y-2690012D01*
X832408Y-2611018D01*
X827379Y-2605989D01*
G37*
G36*
X5144922Y-3663391D02*
G01*
X5139893Y-3668420D01*
X5139893Y-3691178D01*
X5176875Y-3691178D01*
X5176875Y-3724198D01*
X5139893Y-3724198D01*
X5139893Y-3748379D01*
X5144922Y-3753408D01*
X5224881Y-3753408D01*
X5229910Y-3748379D01*
X5229910Y-3668420D01*
X5224881Y-3663391D01*
G37*
G36*
X4985918Y-3663391D02*
G01*
X4980889Y-3668420D01*
X4980889Y-3748379D01*
X4985918Y-3753408D01*
X5064912Y-3753408D01*
X5069890Y-3748379D01*
X5069890Y-3724198D01*
X5031892Y-3724198D01*
X5031892Y-3691178D01*
X5069890Y-3691178D01*
X5069890Y-3668420D01*
X5064912Y-3663391D01*
G37*
G36*
X5144922Y-3485591D02*
G01*
X5139893Y-3490620D01*
X5139893Y-3513378D01*
X5176875Y-3513378D01*
X5176875Y-3546398D01*
X5139893Y-3546398D01*
X5139893Y-3570579D01*
X5144922Y-3575608D01*
X5224881Y-3575608D01*
X5229910Y-3570579D01*
X5229910Y-3490620D01*
X5224881Y-3485591D01*
G37*
G36*
X4985918Y-3485591D02*
G01*
X4980889Y-3490620D01*
X4980889Y-3570579D01*
X4985918Y-3575608D01*
X5064912Y-3575608D01*
X5069890Y-3570579D01*
X5069890Y-3546398D01*
X5031892Y-3546398D01*
X5031892Y-3513378D01*
X5069890Y-3513378D01*
X5069890Y-3490620D01*
X5064912Y-3485591D01*
G37*
G36*
X5144922Y-2952191D02*
G01*
X5139893Y-2957220D01*
X5139893Y-2979978D01*
X5176875Y-2979978D01*
X5176875Y-3012998D01*
X5139893Y-3012998D01*
X5139893Y-3037179D01*
X5144922Y-3042208D01*
X5224881Y-3042208D01*
X5229910Y-3037179D01*
X5229910Y-2957220D01*
X5224881Y-2952191D01*
G37*
G36*
X4985918Y-2952191D02*
G01*
X4980889Y-2957220D01*
X4980889Y-3037179D01*
X4985918Y-3042208D01*
X5064912Y-3042208D01*
X5069890Y-3037179D01*
X5069890Y-3012998D01*
X5031892Y-3012998D01*
X5031892Y-2979978D01*
X5069890Y-2979978D01*
X5069890Y-2957220D01*
X5064912Y-2952191D01*
G37*
G36*
X4985918Y-3129991D02*
G01*
X4980889Y-3135020D01*
X4980889Y-3214979D01*
X4985918Y-3220008D01*
X5065877Y-3220008D01*
X5070906Y-3214979D01*
X5070906Y-3192221D01*
X5033924Y-3192221D01*
X5033924Y-3159201D01*
X5070906Y-3159201D01*
X5070906Y-3135020D01*
X5065877Y-3129991D01*
G37*
G36*
X5145887Y-3129991D02*
G01*
X5140909Y-3135020D01*
X5140909Y-3159201D01*
X5178907Y-3159201D01*
X5178907Y-3192221D01*
X5140909Y-3192221D01*
X5140909Y-3214979D01*
X5145887Y-3220008D01*
X5224881Y-3220008D01*
X5229910Y-3214979D01*
X5229910Y-3135020D01*
X5224881Y-3129991D01*
G37*
G36*
X4985918Y-3307791D02*
G01*
X4980889Y-3312820D01*
X4980889Y-3392779D01*
X4985918Y-3397808D01*
X5065877Y-3397808D01*
X5070906Y-3392779D01*
X5070906Y-3370021D01*
X5033924Y-3370021D01*
X5033924Y-3337001D01*
X5070906Y-3337001D01*
X5070906Y-3312820D01*
X5065877Y-3307791D01*
G37*
G36*
X5145887Y-3307791D02*
G01*
X5140909Y-3312820D01*
X5140909Y-3337001D01*
X5178907Y-3337001D01*
X5178907Y-3370021D01*
X5140909Y-3370021D01*
X5140909Y-3392779D01*
X5145887Y-3397808D01*
X5224881Y-3397808D01*
X5229910Y-3392779D01*
X5229910Y-3312820D01*
X5224881Y-3307791D01*
G37*
G36*
X4985918Y-3841191D02*
G01*
X4980889Y-3846220D01*
X4980889Y-3926179D01*
X4985918Y-3931208D01*
X5065877Y-3931208D01*
X5070906Y-3926179D01*
X5070906Y-3903421D01*
X5033924Y-3903421D01*
X5033924Y-3870401D01*
X5070906Y-3870401D01*
X5070906Y-3846220D01*
X5065877Y-3841191D01*
G37*
G36*
X5145887Y-3841191D02*
G01*
X5140909Y-3846220D01*
X5140909Y-3870401D01*
X5178907Y-3870401D01*
X5178907Y-3903421D01*
X5140909Y-3903421D01*
X5140909Y-3926179D01*
X5145887Y-3931208D01*
X5224881Y-3931208D01*
X5229910Y-3926179D01*
X5229910Y-3846220D01*
X5224881Y-3841191D01*
G37*
G36*
X5144922Y-2660091D02*
G01*
X5139893Y-2665120D01*
X5139893Y-2687878D01*
X5176875Y-2687878D01*
X5176875Y-2720898D01*
X5139893Y-2720898D01*
X5139893Y-2745079D01*
X5144922Y-2750108D01*
X5224881Y-2750108D01*
X5229910Y-2745079D01*
X5229910Y-2665120D01*
X5224881Y-2660091D01*
G37*
G36*
X4985918Y-2660091D02*
G01*
X4980889Y-2665120D01*
X4980889Y-2745079D01*
X4985918Y-2750108D01*
X5064912Y-2750108D01*
X5069890Y-2745079D01*
X5069890Y-2720898D01*
X5031892Y-2720898D01*
X5031892Y-2687878D01*
X5069890Y-2687878D01*
X5069890Y-2665120D01*
X5064912Y-2660091D01*
G37*
D12*
X4356900Y-3606800D02*
G01*
X4186900Y-3606800D01*
X4356900Y-3479800D02*
G01*
X4186900Y-3479800D01*
X4356900Y-3352800D02*
G01*
X4186900Y-3352800D01*
X4356900Y-3225800D02*
G01*
X4186900Y-3225800D01*
X4356900Y-3098800D02*
G01*
X4186900Y-3098800D01*
X4356900Y-2971800D02*
G01*
X4186900Y-2971800D01*
X4356900Y-2844800D02*
G01*
X4186900Y-2844800D01*
X4356900Y-2717800D02*
G01*
X4186900Y-2717800D01*
X3356899Y-3606800D02*
G01*
X3186899Y-3606800D01*
X3356899Y-3479800D02*
G01*
X3186899Y-3479800D01*
X3356899Y-3352800D02*
G01*
X3186899Y-3352800D01*
X3356899Y-3225800D02*
G01*
X3186899Y-3225800D01*
X3356899Y-3098800D02*
G01*
X3186899Y-3098800D01*
X3356899Y-2971800D02*
G01*
X3186899Y-2971800D01*
X3356899Y-2844800D02*
G01*
X3186899Y-2844800D01*
X3356899Y-2717800D02*
G01*
X3186899Y-2717800D01*
G36*
X1090000Y-2056300D02*
G01*
X1230000Y-2056300D01*
X1230000Y-2286302D01*
X1090000Y-2286302D01*
G37*
G36*
X770001Y-2056300D02*
G01*
X910000Y-2056300D01*
X910000Y-2286302D01*
X770001Y-2286302D01*
G37*
G36*
X2589999Y-2056297D02*
G01*
X2729999Y-2056297D01*
X2729999Y-2286299D01*
X2589999Y-2286299D01*
G37*
G36*
X2270000Y-2056297D02*
G01*
X2410000Y-2056297D01*
X2410000Y-2286299D01*
X2270000Y-2286299D01*
G37*
G36*
X4089999Y-2056300D02*
G01*
X4229999Y-2056300D01*
X4229999Y-2286302D01*
X4089999Y-2286302D01*
G37*
G36*
X3770000Y-2056300D02*
G01*
X3909999Y-2056300D01*
X3909999Y-2286302D01*
X3770000Y-2286302D01*
G37*
G36*
X5589998Y-2056300D02*
G01*
X5729998Y-2056300D01*
X5729998Y-2286302D01*
X5589998Y-2286302D01*
G37*
G36*
X5269999Y-2056300D02*
G01*
X5409999Y-2056300D01*
X5409999Y-2286302D01*
X5269999Y-2286302D01*
G37*
D15*
G01*
X895604Y-3132734D03*
G01*
X1085595Y-3132734D03*
G01*
X990600Y-2912465D03*
G01*
X1644904Y-3132734D03*
G01*
X1834895Y-3132734D03*
G01*
X1739900Y-2912465D03*
D18*
G01*
X901700Y-3422497D03*
G01*
X901700Y-3562502D03*
G01*
X1841500Y-3422497D03*
G01*
X1841500Y-3562502D03*
G01*
X1447800Y-2659303D03*
G01*
X1447800Y-2799283D03*
G36*
X4832990Y-1583301D02*
G01*
X4932989Y-1583301D01*
X4932989Y-1693301D01*
X4832990Y-1693301D01*
G37*
G36*
X4972989Y-1583301D02*
G01*
X5072989Y-1583301D01*
X5072989Y-1693301D01*
X4972989Y-1693301D01*
G37*
G36*
X705007Y-1520609D02*
G01*
X845007Y-1520609D01*
X845007Y-1750611D01*
X705007Y-1750611D01*
G37*
G36*
X1154993Y-1520609D02*
G01*
X1294993Y-1520609D01*
X1294993Y-1750611D01*
X1154993Y-1750611D01*
G37*
G36*
X705007Y-591990D02*
G01*
X845007Y-591990D01*
X845007Y-821992D01*
X705007Y-821992D01*
G37*
G36*
X1154993Y-591990D02*
G01*
X1294993Y-591990D01*
X1294993Y-821992D01*
X1154993Y-821992D01*
G37*
G36*
X2205007Y-1520609D02*
G01*
X2345006Y-1520609D01*
X2345006Y-1750611D01*
X2205007Y-1750611D01*
G37*
G36*
X2654993Y-1520609D02*
G01*
X2794993Y-1520609D01*
X2794993Y-1750611D01*
X2654993Y-1750611D01*
G37*
G36*
X2205007Y-591990D02*
G01*
X2345006Y-591990D01*
X2345006Y-821992D01*
X2205007Y-821992D01*
G37*
G36*
X2654993Y-591990D02*
G01*
X2794993Y-591990D01*
X2794993Y-821992D01*
X2654993Y-821992D01*
G37*
G36*
X3705006Y-1520609D02*
G01*
X3845006Y-1520609D01*
X3845006Y-1750611D01*
X3705006Y-1750611D01*
G37*
G36*
X4154992Y-1520609D02*
G01*
X4294992Y-1520609D01*
X4294992Y-1750611D01*
X4154992Y-1750611D01*
G37*
G36*
X3705006Y-591990D02*
G01*
X3845006Y-591990D01*
X3845006Y-821992D01*
X3705006Y-821992D01*
G37*
G36*
X4154992Y-591990D02*
G01*
X4294992Y-591990D01*
X4294992Y-821992D01*
X4154992Y-821992D01*
G37*
G36*
X5205006Y-1520609D02*
G01*
X5345005Y-1520609D01*
X5345005Y-1750611D01*
X5205006Y-1750611D01*
G37*
G36*
X5654992Y-1520609D02*
G01*
X5794992Y-1520609D01*
X5794992Y-1750611D01*
X5654992Y-1750611D01*
G37*
G36*
X5205006Y-591990D02*
G01*
X5345005Y-591990D01*
X5345005Y-821992D01*
X5205006Y-821992D01*
G37*
G36*
X5654992Y-591990D02*
G01*
X5794992Y-591990D01*
X5794992Y-821992D01*
X5654992Y-821992D01*
G37*
G01*
X1384300Y-3562477D03*
G01*
X1384300Y-3422497D03*
G01*
X5016500Y-4451502D03*
G01*
X5016500Y-4311522D03*
M02*
