G04 Layer: TopSolderMaskLayer*
G04 EasyEDA v6.4.25, 2021-11-01T16:40:30+01:00*
G04 d0984406bf964252bec45fc5339864a5,23de75a5ce864506aa6f80b6cd8e489b,10*
G04 Gerber Generator version 0.2*
G04 Scale: 100 percent, Rotated: No, Reflected: No *
G04 Dimensions in millimeters *
G04 leading zeros omitted , absolute positions ,4 integer and 5 decimal *
%FSLAX45Y45*%
%MOMM*%

%ADD28C,0.7016*%
%ADD30C,2.0032*%

%LPD*%
D28*
X4356900Y-3606800D02*
G01*
X4186900Y-3606800D01*
X4356900Y-3479800D02*
G01*
X4186900Y-3479800D01*
X4356900Y-3352800D02*
G01*
X4186900Y-3352800D01*
X4356900Y-3225800D02*
G01*
X4186900Y-3225800D01*
X4356900Y-3098800D02*
G01*
X4186900Y-3098800D01*
X4356900Y-2971800D02*
G01*
X4186900Y-2971800D01*
X4356900Y-2844800D02*
G01*
X4186900Y-2844800D01*
X4356900Y-2717800D02*
G01*
X4186900Y-2717800D01*
X3356899Y-3606800D02*
G01*
X3186899Y-3606800D01*
X3356899Y-3479800D02*
G01*
X3186899Y-3479800D01*
X3356899Y-3352800D02*
G01*
X3186899Y-3352800D01*
X3356899Y-3225800D02*
G01*
X3186899Y-3225800D01*
X3356899Y-3098800D02*
G01*
X3186899Y-3098800D01*
X3356899Y-2971800D02*
G01*
X3186899Y-2971800D01*
X3356899Y-2844800D02*
G01*
X3186899Y-2844800D01*
X3356899Y-2717800D02*
G01*
X3186899Y-2717800D01*
G36*
X1093723Y-4633976D02*
G01*
X1093723Y-4433823D01*
X1293876Y-4433823D01*
X1293876Y-4633976D01*
G37*
D30*
G01*
X1447800Y-4533900D03*
G01*
X1701800Y-4533900D03*
G01*
X1955800Y-4533900D03*
G01*
X2209800Y-4533900D03*
G36*
X2871724Y-4633976D02*
G01*
X2871724Y-4433823D01*
X3071875Y-4433823D01*
X3071875Y-4633976D01*
G37*
G01*
X3479800Y-4533900D03*
G01*
X3733800Y-4533900D03*
G01*
X3987800Y-4533900D03*
G01*
X3225800Y-4533900D03*
G36*
X1084834Y-2291334D02*
G01*
X1084834Y-2051304D01*
X1235202Y-2051304D01*
X1235202Y-2291334D01*
G37*
G36*
X765047Y-2291334D02*
G01*
X765047Y-2051304D01*
X915162Y-2051304D01*
X915162Y-2291334D01*
G37*
G36*
X2584958Y-2291334D02*
G01*
X2584958Y-2051304D01*
X2735072Y-2051304D01*
X2735072Y-2291334D01*
G37*
G36*
X2264918Y-2291334D02*
G01*
X2264918Y-2051304D01*
X2415031Y-2051304D01*
X2415031Y-2291334D01*
G37*
G36*
X4084827Y-2291334D02*
G01*
X4084827Y-2051304D01*
X4235195Y-2051304D01*
X4235195Y-2291334D01*
G37*
G36*
X3765041Y-2291334D02*
G01*
X3765041Y-2051304D01*
X3915156Y-2051304D01*
X3915156Y-2291334D01*
G37*
G36*
X5584952Y-2291334D02*
G01*
X5584952Y-2051304D01*
X5735065Y-2051304D01*
X5735065Y-2291334D01*
G37*
G36*
X5264911Y-2291334D02*
G01*
X5264911Y-2051304D01*
X5415025Y-2051304D01*
X5415025Y-2291334D01*
G37*
G36*
X863854Y-3189731D02*
G01*
X863854Y-3075686D01*
X927354Y-3075686D01*
X927354Y-3189731D01*
G37*
G36*
X1053845Y-3189731D02*
G01*
X1053845Y-3075686D01*
X1117345Y-3075686D01*
X1117345Y-3189731D01*
G37*
G36*
X958850Y-2969513D02*
G01*
X958850Y-2855468D01*
X1022350Y-2855468D01*
X1022350Y-2969513D01*
G37*
G36*
X1613154Y-3189731D02*
G01*
X1613154Y-3075686D01*
X1676654Y-3075686D01*
X1676654Y-3189731D01*
G37*
G36*
X1803145Y-3189731D02*
G01*
X1803145Y-3075686D01*
X1866645Y-3075686D01*
X1866645Y-3189731D01*
G37*
G36*
X1708150Y-2969513D02*
G01*
X1708150Y-2855468D01*
X1771650Y-2855468D01*
X1771650Y-2969513D01*
G37*
G36*
X2555240Y-2838450D02*
G01*
X2555240Y-2747771D01*
X2651759Y-2747771D01*
X2651759Y-2838450D01*
G37*
G36*
X2555240Y-2687828D02*
G01*
X2555240Y-2597150D01*
X2651759Y-2597150D01*
X2651759Y-2687828D01*
G37*
G36*
X2225040Y-2838450D02*
G01*
X2225040Y-2747771D01*
X2321559Y-2747771D01*
X2321559Y-2838450D01*
G37*
G36*
X2225040Y-2687828D02*
G01*
X2225040Y-2597150D01*
X2321559Y-2597150D01*
X2321559Y-2687828D01*
G37*
G36*
X739139Y-2851150D02*
G01*
X739139Y-2760471D01*
X835660Y-2760471D01*
X835660Y-2851150D01*
G37*
G36*
X739139Y-2700528D02*
G01*
X739139Y-2609850D01*
X835660Y-2609850D01*
X835660Y-2700528D01*
G37*
G36*
X5135372Y-3756660D02*
G01*
X5135372Y-3660139D01*
X5226050Y-3660139D01*
X5226050Y-3756660D01*
G37*
G36*
X4984750Y-3756660D02*
G01*
X4984750Y-3660139D01*
X5075427Y-3660139D01*
X5075427Y-3756660D01*
G37*
G36*
X5135372Y-3578860D02*
G01*
X5135372Y-3482339D01*
X5226050Y-3482339D01*
X5226050Y-3578860D01*
G37*
G36*
X4984750Y-3578860D02*
G01*
X4984750Y-3482339D01*
X5075427Y-3482339D01*
X5075427Y-3578860D01*
G37*
G36*
X5135372Y-3045460D02*
G01*
X5135372Y-2948939D01*
X5226050Y-2948939D01*
X5226050Y-3045460D01*
G37*
G36*
X4984750Y-3045460D02*
G01*
X4984750Y-2948939D01*
X5075427Y-2948939D01*
X5075427Y-3045460D01*
G37*
G36*
X4984750Y-3223260D02*
G01*
X4984750Y-3126739D01*
X5075427Y-3126739D01*
X5075427Y-3223260D01*
G37*
G36*
X5135372Y-3223260D02*
G01*
X5135372Y-3126739D01*
X5226050Y-3126739D01*
X5226050Y-3223260D01*
G37*
G36*
X4984750Y-3401060D02*
G01*
X4984750Y-3304539D01*
X5075427Y-3304539D01*
X5075427Y-3401060D01*
G37*
G36*
X5135372Y-3401060D02*
G01*
X5135372Y-3304539D01*
X5226050Y-3304539D01*
X5226050Y-3401060D01*
G37*
G36*
X4984750Y-3934460D02*
G01*
X4984750Y-3837939D01*
X5075427Y-3837939D01*
X5075427Y-3934460D01*
G37*
G36*
X5135372Y-3934460D02*
G01*
X5135372Y-3837939D01*
X5226050Y-3837939D01*
X5226050Y-3934460D01*
G37*
G36*
X836421Y-3482594D02*
G01*
X836421Y-3362452D01*
X966978Y-3362452D01*
X966978Y-3482594D01*
G37*
G36*
X836421Y-3622547D02*
G01*
X836421Y-3502405D01*
X966978Y-3502405D01*
X966978Y-3622547D01*
G37*
G36*
X1776221Y-3482594D02*
G01*
X1776221Y-3362452D01*
X1906778Y-3362452D01*
X1906778Y-3482594D01*
G37*
G36*
X1776221Y-3622547D02*
G01*
X1776221Y-3502405D01*
X1906778Y-3502405D01*
X1906778Y-3622547D01*
G37*
G36*
X1382521Y-2719578D02*
G01*
X1382521Y-2599181D01*
X1513078Y-2599181D01*
X1513078Y-2719578D01*
G37*
G36*
X1382521Y-2859531D02*
G01*
X1382521Y-2739136D01*
X1513078Y-2739136D01*
X1513078Y-2859531D01*
G37*
G36*
X4822952Y-1703578D02*
G01*
X4822952Y-1573021D01*
X4943093Y-1573021D01*
X4943093Y-1703578D01*
G37*
G36*
X4962906Y-1703578D02*
G01*
X4962906Y-1573021D01*
X5083047Y-1573021D01*
X5083047Y-1703578D01*
G37*
G36*
X700023Y-1755647D02*
G01*
X700023Y-1515618D01*
X850137Y-1515618D01*
X850137Y-1755647D01*
G37*
G36*
X1149857Y-1755647D02*
G01*
X1149857Y-1515618D01*
X1299971Y-1515618D01*
X1299971Y-1755647D01*
G37*
G36*
X700023Y-827023D02*
G01*
X700023Y-586994D01*
X850137Y-586994D01*
X850137Y-827023D01*
G37*
G36*
X1149857Y-827023D02*
G01*
X1149857Y-586994D01*
X1299971Y-586994D01*
X1299971Y-827023D01*
G37*
G36*
X2199893Y-1755647D02*
G01*
X2199893Y-1515618D01*
X2350008Y-1515618D01*
X2350008Y-1755647D01*
G37*
G36*
X2649981Y-1755647D02*
G01*
X2649981Y-1515618D01*
X2800095Y-1515618D01*
X2800095Y-1755647D01*
G37*
G36*
X2199893Y-827023D02*
G01*
X2199893Y-586994D01*
X2350008Y-586994D01*
X2350008Y-827023D01*
G37*
G36*
X2649981Y-827023D02*
G01*
X2649981Y-586994D01*
X2800095Y-586994D01*
X2800095Y-827023D01*
G37*
G36*
X3700018Y-1755647D02*
G01*
X3700018Y-1515618D01*
X3850131Y-1515618D01*
X3850131Y-1755647D01*
G37*
G36*
X4149852Y-1755647D02*
G01*
X4149852Y-1515618D01*
X4299965Y-1515618D01*
X4299965Y-1755647D01*
G37*
G36*
X3700018Y-827023D02*
G01*
X3700018Y-586994D01*
X3850131Y-586994D01*
X3850131Y-827023D01*
G37*
G36*
X4149852Y-827023D02*
G01*
X4149852Y-586994D01*
X4299965Y-586994D01*
X4299965Y-827023D01*
G37*
G36*
X5199888Y-1755647D02*
G01*
X5199888Y-1515618D01*
X5350002Y-1515618D01*
X5350002Y-1755647D01*
G37*
G36*
X5649975Y-1755647D02*
G01*
X5649975Y-1515618D01*
X5800090Y-1515618D01*
X5800090Y-1755647D01*
G37*
G36*
X5199888Y-827023D02*
G01*
X5199888Y-586994D01*
X5350002Y-586994D01*
X5350002Y-827023D01*
G37*
G36*
X5649975Y-827023D02*
G01*
X5649975Y-586994D01*
X5800090Y-586994D01*
X5800090Y-827023D01*
G37*
G36*
X1319021Y-3622547D02*
G01*
X1319021Y-3502405D01*
X1449578Y-3502405D01*
X1449578Y-3622547D01*
G37*
G36*
X1319021Y-3482594D02*
G01*
X1319021Y-3362452D01*
X1449578Y-3362452D01*
X1449578Y-3482594D01*
G37*
G36*
X5135372Y-2753360D02*
G01*
X5135372Y-2656839D01*
X5226050Y-2656839D01*
X5226050Y-2753360D01*
G37*
G36*
X4984750Y-2753360D02*
G01*
X4984750Y-2656839D01*
X5075427Y-2656839D01*
X5075427Y-2753360D01*
G37*
G36*
X4951222Y-4511547D02*
G01*
X4951222Y-4391405D01*
X5081777Y-4391405D01*
X5081777Y-4511547D01*
G37*
G36*
X4951222Y-4371594D02*
G01*
X4951222Y-4251452D01*
X5081777Y-4251452D01*
X5081777Y-4371594D01*
G37*
M02*
