M48
METRIC,LZ,000.000
;FILE_FORMAT=3:3
;TYPE=PLATED
;Layer: Drill PTH
;EasyEDA v6.4.25, 2021-11-01T16:40:30+01:00
;d0984406bf964252bec45fc5339864a5,23de75a5ce864506aa6f80b6cd8e489b,10
;Gerber Generator version 0.2
;Holesize 1 = 0.306 mm
T01C0.306
;Holesize 2 = 1.083 mm
T02C1.083
;Holesize 3 = 1.200 mm
T03C1.200
%
G05
G90
T01
X028448Y-021717
X035560Y-028448
X044831Y-012700
X044831Y-030988
X045974Y-012700
X045974Y-029718
X046990Y-012700
X046990Y-028448
X043434Y-023114
X029718Y-033528
X021463Y-036068
X029718Y-038227
X012573Y-026670
X011938Y-029083
X058039Y-028448
X048768Y-028448
X027432Y-034798
X021463Y-034798
X021082Y-026670
X029718Y-027178
X018034Y-024511
X014478Y-043180
X011938Y-043180
X011938Y-039370
X048387Y-032639
X036423Y-002818
X041503Y-002818
X046583Y-002818
X051663Y-002818
X056743Y-002818
X039414Y-005771
X044494Y-005771
X049574Y-005771
X054654Y-005771
X009887Y-025833
X014967Y-020753
X020047Y-020753
X030207Y-020753
X035287Y-020753
X027357Y-027991
X032437Y-022911
X024817Y-029253
X024817Y-044493
X002818Y-007898
X002818Y-012978
X007898Y-012978
X007898Y-038378
X007898Y-043458
X012978Y-002818
X012978Y-012978
X012978Y-038378
X018058Y-002818
X018058Y-007898
X018058Y-012978
X023138Y-002818
X023138Y-012978
X028218Y-002818
X028218Y-012978
X033298Y-012978
X038378Y-012978
X038378Y-038378
X043458Y-012978
X043458Y-038378
X048538Y-012978
X048538Y-038378
X053618Y-012978
X053618Y-043458
X058698Y-033298
X058698Y-038378
X058698Y-043458
T02
X032258Y-045339
T03
X011938Y-045339
X014478Y-045339
X017018Y-045339
X019558Y-045339
X022098Y-045339
X029718Y-045339
X034798Y-045339
X037338Y-045339
X039878Y-045339
M30
